<svg width="15" height="17" xmlns="http://www.w3.org/2000/svg">
 <g>
  <title>Elvis</title>
  <path stroke-width="0" id="imagebot_2" d="M 2.65379 8.56625 C 2.65094 8.97502 2.86388 9.02364 3.2926 9.06426 L 3.2926 9.51715 C 3.79564 9.53276 4.29876 9.54725 4.8018 9.56251 C 4.91711 9.44538 4.88647 9.44275 5.09288 9.3815 C 5.03519 9.2756 4.9766 9.17005 4.91898 9.06421 C 5.46384 8.93978 5.3728 8.87625 6.02187 8.97344 C 6.13344 9.10944 6.03214 9.04959 6.25437 9.10944 C 6.35664 8.98688 6.40781 8.94153 6.60224 8.88314 C 6.56403 8.68694 6.52582 8.49033 6.48693 8.29419 C 6.31213 8.21833 6.13816 8.14293 5.96426 8.06789 C 6.06098 8.08274 6.15771 8.09793 6.25437 8.11318 L 6.25437 7.84118 C 5.7448 7.59057 5.46211 7.50454 4.62805 7.52412 C 3.31957 7.9316 3.11592 7.23744 2.65379 8.56625 Z M 5.73169 8.70225 C 5.3253 8.687 4.91891 8.6718 4.51169 8.6569 C 4.49311 8.59635 4.47356 8.53586 4.454 8.47531 C 4.55073 8.4451 4.64746 8.4147 4.74411 8.38461 C 5.14953 8.40448 5.50295 8.53545 5.73169 8.70225 Z M 11.3063 8.15825 C 10.8999 8.09805 10.4936 8.03744 10.0872 7.97689 C 10.0482 7.96205 10.0091 7.94679 9.971 7.9316 C 10.4871 7.87461 11.0767 7.86228 11.3063 8.15825 L 11.7136 8.15825 C 11.7406 7.92797 11.7247 7.90944 11.6551 7.7053 C 10.6861 7.15837 9.19276 7.51921 8.22938 7.56964 L 8.22938 7.8413 C 8.63659 7.842 8.72867 7.85328 8.98439 7.8863 C 8.77056 7.96205 8.55762 8.0375 8.34469 8.1133 C 8.23118 8.34288 8.32513 8.31926 8.34469 8.61125 C 8.55762 8.5811 8.77056 8.55112 8.98439 8.52055 L 8.98439 8.56625 C 8.82915 8.62645 8.67375 8.687 8.51949 8.7472 L 8.51949 8.92861 C 8.76869 8.84848 8.76029 8.78425 9.0997 8.7472 C 9.30237 8.86841 9.35639 8.88402 9.38981 9.15491 C 9.60274 9.06461 9.48834 9.17665 9.56461 8.97356 C 9.66133 8.98887 9.75806 9.00372 9.85479 9.01885 L 9.62222 9.01885 C 9.72922 9.22773 9.66411 9.17958 9.91331 9.15485 C 10.223 9.14001 10.5326 9.12476 10.8422 9.10956 C 10.8999 9.04901 10.9585 8.98887 11.0161 8.92855 C 10.9584 8.80746 10.8998 8.687 10.8422 8.56625 C 10.9966 8.50564 11.1519 8.4451 11.3062 8.38461 L 11.3062 8.15825 L 11.3063 8.15825 Z M 9.971 8.97356 C 9.99055 8.92855 10.0091 8.88326 10.0287 8.83797 C 10.076 8.94924 10.05 8.87671 9.971 8.97356 Z M 9.04111 8.52055 C 9.22707 8.38057 9.2252 8.45129 9.21598 8.24895 C 9.2745 8.23376 9.33219 8.2185 9.38981 8.2036 C 9.73851 8.23376 10.0872 8.26421 10.435 8.29437 C 10.474 8.38466 10.5131 8.47537 10.5512 8.56631 C 10.0519 8.45632 9.60087 8.50927 9.04111 8.52055 Z M 5.4992 5.21366 C 5.38292 5.19847 5.26671 5.18356 5.1505 5.16837 L 4.86032 5.30437 C 4.82128 5.38017 4.78322 5.45522 4.74411 5.53102 C 4.95712 5.50057 5.16998 5.47047 5.38292 5.44002 C 5.42195 5.38017 5.46106 5.31962 5.4992 5.25902 L 5.4992 5.21366 Z M 14.5004 3.58269 L 14.6167 3.58269 C 14.5423 3.44774 14.6195 3.52863 14.5004 3.44704 L 14.5004 3.58269 Z M 14.9077 4.44371 C 15.023 4.17568 14.7886 4.25294 14.6751 4.12635 C 14.6677 4.12232 14.28 3.50724 14.3265 3.44704 C 14.3916 3.36294 14.5878 3.3796 14.5003 3.13009 L 13.9201 2.22373 L 13.8038 2.17843 C 13.8234 2.41998 13.8429 2.66148 13.8624 2.90379 C 13.4988 2.61507 13.4775 2.00146 13.165 1.68013 C 12.8553 1.43857 12.5456 1.19702 12.2351 0.955466 C 11.8222 0.74331 11.4968 1.04687 11.1908 1.00047 C 11.016 0.895326 10.8421 0.789423 10.6682 0.683871 C 9.62507 0.329109 7.08281 -0.043362 6.3705 0.502808 C 6.27377 0.411809 6.17607 0.32116 6.08032 0.230454 C 5.95392 0.152137 5.9241 0.149215 5.6731 0.140156 C 5.07887 0.481417 3.17362 0.300471 2.30509 0.638459 C 1.18362 1.07551 1.09806 2.79964 -0.017796 3.49204 C 0.0863491 4.2087 0.274185 4.56884 0.853502 4.89707 C 0.632175 6.12868 1.49606 10.3546 2.01491 10.9215 C 2.15067 10.9516 2.28643 10.9821 2.42122 11.0122 L 2.71141 11.0122 L 2.47981 10.1515 C 2.23062 9.44901 1.88843 8.50564 2.24732 7.47894 C 2.38219 7.09197 2.8127 6.92844 2.88613 6.43698 C 3.87926 6.37134 4.52653 5.52921 5.09273 5.07801 C 5.33819 5.05984 5.65624 5.01816 5.73154 5.2136 C 6.31078 5.15054 6.7144 4.78526 7.12544 4.66995 C 8.29052 4.34242 10.6013 5.22231 11.5386 5.62161 C 11.8696 6.17719 12.8645 8.7936 12.4684 9.74381 L 12.4684 10.5587 C 13.6726 10.2283 14.1339 6.39554 14.3264 4.98725 C 14.3841 4.9568 14.4426 4.9267 14.5002 4.89695 C 14.7717 5.01734 15.0423 5.1385 15.3139 5.2589 C 15.2331 5.03955 15.1113 4.58772 14.9077 4.44371 Z M 5.09281 0.593164 C 5.13095 0.57791 5.16991 0.562714 5.20909 0.547811 L 5.26678 0.547811 C 5.1505 0.626887 5.25644 0.646466 5.09281 0.593164 Z M 14.0365 3.17545 L 14.0365 2.99444 C 14.056 3.05429 14.0746 3.11484 14.0941 3.17545 L 14.0365 3.17545 Z M 9.21598 13.5941 C 9.29406 13.519 9.37033 13.4432 9.4484 13.3678 L 9.4484 13.1415 C 8.8003 12.4052 6.86612 12.4215 5.55689 12.2351 C 5.51883 12.2956 5.48062 12.3562 5.44158 12.4167 C 5.47882 12.9387 5.7959 13.074 6.02187 13.4131 C 6.81885 13.7866 7.65006 13.1726 8.69339 13.4131 C 8.87927 13.4562 8.92206 13.5592 9.21598 13.5941 Z M 8.0545 12.8695 C 7.57656 12.9391 7.19999 12.8506 6.7192 12.8242 C 6.69972 12.794 6.68016 12.7635 6.66068 12.7338 C 6.80761 12.6588 6.95723 12.6925 7.12566 12.5979 L 8.0545 12.7338 L 8.0545 12.8695 Z M 11.1324 14.3194 C 10.6284 15.1129 9.36381 16.1854 8.11212 16.4029 C 5.94178 16.7797 4.6288 14.2556 4.28003 13.0503 C 4.14524 12.5855 4.55253 12.2612 4.45393 11.9634 C 4.35068 11.6537 3.11675 11.1648 2.71133 11.0574 C 2.74295 11.7614 3.10746 12.2738 3.23393 12.8241 C 3.23393 12.8241 4.87942 16.7073 7.736 16.7073 C 9.99745 16.6608 11.0092 14.9896 11.3067 14.5718 C 11.5234 14.2672 11.7726 13.5959 12.0524 13.1806 C 12.045 13.0253 12.0459 12.8835 12.0612 12.7787 C 11.3397 13.0583 11.4941 13.7493 11.1324 14.3194 Z M 7.41562 14.6814 C 7.03163 14.5936 6.78341 14.3767 6.48678 14.2284 C 6.40953 14.2135 6.33146 14.1983 6.25422 14.1831 C 6.40946 14.9955 7.756 14.9987 8.63472 14.7268 C 8.40972 14.4804 7.87596 14.7869 7.41562 14.6814 Z M 6.0218 10.7858 L 5.84797 10.7858 C 5.70569 11.0695 5.55779 11.229 5.55682 11.6464 C 5.57645 11.6769 5.59593 11.7066 5.61541 11.7368 C 6.8205 11.9609 7.58308 11.6138 8.57703 11.6464 C 8.59666 11.571 8.61516 11.4953 8.63479 11.4198 C 8.52218 11.3277 6.67829 11.2624 6.08032 11.1478 C 6.06083 11.0274 6.04135 10.9062 6.0218 10.7858 Z" fill="#1A171B" clip-rule="evenodd" fill-rule="evenodd"/>
 </g>
</svg>